HIERARCHY
ROOT Hips
{
 OFFSET 0.000000 0.000000 0.000000
 CHANNELS 6 Xposition Yposition Zposition Yrotation Xrotation Zrotation
 JOINT Chest
 {
  OFFSET 0.000000 12.953391 -0.028419
  CHANNELS 3 Yrotation Xrotation Zrotation
  JOINT Chest2
  {
   OFFSET 0.000000 10.280254 0.051622
   CHANNELS 3 Yrotation Xrotation Zrotation
   JOINT Chest3
   {
    OFFSET 0.000000 9.287180 0.000000
    CHANNELS 3 Yrotation Xrotation Zrotation
    JOINT Chest4
    {
     OFFSET 0.000000 9.287180 0.000000
     CHANNELS 3 Yrotation Xrotation Zrotation
     JOINT Neck
     {
      OFFSET 0.000000 13.296264 0.000000
      CHANNELS 3 Yrotation Xrotation Zrotation
      JOINT Head
      {
       OFFSET 0.000000 8.959264 0.099003
       CHANNELS 3 Yrotation Xrotation Zrotation
       End Site
       {
        OFFSET 0.000000 17.121337 0.039303
       }
      }
     }
     JOINT RightCollar
     {
      OFFSET -3.193511 7.451388 0.000000
      CHANNELS 3 Yrotation Xrotation Zrotation
      JOINT RightShoulder
      {
       OFFSET -15.792092 0.000000 0.000000
       CHANNELS 3 Yrotation Xrotation Zrotation
       JOINT RightElbow
       {
        OFFSET -31.151839 0.000000 0.000000
        CHANNELS 3 Yrotation Xrotation Zrotation
        JOINT RightWrist
        {
         OFFSET -25.536298 0.000000 0.002321
         CHANNELS 3 Yrotation Xrotation Zrotation
         End Site
         {
          OFFSET -19.133213 0.000000 0.000000
         }
        }
       }
      }
     }
     JOINT LeftCollar
     {
      OFFSET 3.193511 7.451388 0.000000
      CHANNELS 3 Yrotation Xrotation Zrotation
      JOINT LeftShoulder
      {
       OFFSET 15.792092 0.000000 0.000000
       CHANNELS 3 Yrotation Xrotation Zrotation
       JOINT LeftElbow
       {
        OFFSET 31.151839 0.000000 0.000000
        CHANNELS 3 Yrotation Xrotation Zrotation
        JOINT LeftWrist
        {
         OFFSET 25.536298 0.000000 0.002321
         CHANNELS 3 Yrotation Xrotation Zrotation
         End Site
         {
          OFFSET 19.133213 0.000000 0.000000
         }
        }
       }
      }
     }
    }
   }
  }
 }
 JOINT RightHip
 {
  OFFSET -10.745749 0.139252 0.014209
  CHANNELS 3 Yrotation Xrotation Zrotation
  JOINT RightKnee
  {
   OFFSET 0.000000 -43.743899 -0.006071
   CHANNELS 3 Yrotation Xrotation Zrotation
   JOINT RightAnkle
   {
    OFFSET 0.000000 -43.214199 0.089931
    CHANNELS 3 Yrotation Xrotation Zrotation
    JOINT RightToe
    {
     OFFSET 0.000000 -9.699830 19.151588
     CHANNELS 3 Yrotation Xrotation Zrotation
     End Site
     {
      OFFSET 0.000000 -1.292898 4.893873
     }
    }
   }
  }
 }
 JOINT LeftHip
 {
  OFFSET 10.745749 0.139252 0.014209
  CHANNELS 3 Yrotation Xrotation Zrotation
  JOINT LeftKnee
  {
   OFFSET 0.000000 -43.743899 -0.006071
   CHANNELS 3 Yrotation Xrotation Zrotation
   JOINT LeftAnkle
   {
    OFFSET 0.000000 -43.214199 0.089931
    CHANNELS 3 Yrotation Xrotation Zrotation
    JOINT LeftToe
    {
     OFFSET 0.000000 -9.699830 19.151588
     CHANNELS 3 Yrotation Xrotation Zrotation
     End Site
     {
      OFFSET 0.000000 -1.292898 4.893873
     }
    }
   }
  }
 }
}
MOTION
Frames: 15
Frame Time: 0.016667
-38.906871 98.256593 -231.899300 1.660224 -4.641708 -0.400185 0.119789 7.046514 0.161769 0.050675 3.131826 0.069935 0.050675 3.131826 0.069935 0.037638 2.348875 0.052179 -2.257582 18.036579 1.043838 -4.503726 -2.615947 2.674176 1.624378 -10.740816 5.720068 -6.866290 26.456420 44.420309 95.364395 19.672431 47.299140 28.436044 21.685149 -21.110974 -3.265627 -9.197347 -5.985387 8.663234 20.532151 -42.391567 -111.576258 27.728671 -65.782186 -7.313510 12.425172 34.741365 -3.420410 7.076988 1.011430 -0.508276 1.642031 0.339475 -7.802790 -4.259282 -0.583224 0.000000 -0.000000 0.000000 1.739065 5.922639 1.272034 0.039675 4.154430 -0.512796 4.569504 -5.995782 -0.181876 0.000000 -0.000000 -0.000000
-38.908176 98.256805 -231.883497 1.656520 -4.626927 -0.401712 0.128787 7.029456 0.165407 0.054618 3.124248 0.071418 0.054618 3.124248 0.071418 0.040588 2.343192 0.053271 -2.263905 18.060173 1.046786 -4.515480 -2.571746 2.680703 1.628662 -10.687184 5.728313 -6.866379 26.452236 44.416879 95.352012 19.672498 47.278544 28.443974 21.679415 -21.117832 -3.300413 -9.159987 -5.985116 8.664121 20.524837 -42.393321 -111.576259 27.730266 -65.792253 -7.309233 12.421359 34.747055 -3.423493 7.077635 1.015058 -0.510037 1.630433 0.336323 -7.793582 -4.260484 -0.581803 0.000000 -0.000000 0.000000 1.741838 5.924981 1.277579 0.042529 4.140988 -0.517400 4.567974 -5.995734 -0.183153 0.000000 0.000000 0.000000
-38.907905 98.256884 -231.866289 1.647482 -4.608524 -0.401436 0.140407 7.003794 0.165792 0.059776 3.112847 0.071421 0.059776 3.112847 0.071421 0.044457 2.334642 0.053248 -2.265573 18.090536 1.054898 -4.520133 -2.514937 2.694892 1.631536 -10.620183 5.742249 -6.874224 26.442391 44.401280 95.344950 19.667583 47.273697 28.452986 21.670540 -21.124932 -3.340064 -9.090349 -5.979616 8.651137 20.512863 -42.406300 -111.565329 27.734517 -65.788956 -7.296163 12.418994 34.750129 -3.412561 7.071245 1.016829 -0.515975 1.625587 0.334801 -7.788876 -4.265301 -0.579935 0.000000 -0.000000 0.000000 1.758747 5.924281 1.277970 0.037730 4.128866 -0.515477 4.566758 -5.996128 -0.184923 0.000000 0.000000 0.000000
-38.906764 98.256891 -231.848008 1.636504 -4.587950 -0.400101 0.153437 6.971985 0.164018 0.065596 3.098714 0.070449 0.065596 3.098714 0.070449 0.048827 2.324043 0.052491 -2.264924 18.126232 1.066298 -4.521413 -2.448172 2.714129 1.635118 -10.542440 5.759491 -6.885341 26.430058 44.380049 95.339361 19.659981 47.276458 28.461246 21.660360 -21.133857 -3.383626 -9.000857 -5.971250 8.631067 20.498130 -42.423979 -111.548841 27.739306 -65.779077 -7.278407 12.416884 34.751802 -3.395117 7.061291 1.017246 -0.524097 1.624137 0.334424 -7.786438 -4.272363 -0.577897 0.000000 0.000000 0.000000 1.782001 5.922018 1.275565 0.029110 4.117112 -0.510365 4.565575 -5.996830 -0.186890 0.000000 -0.000000 -0.000000
-38.905893 98.256824 -231.828755 1.625619 -4.567348 -0.396895 0.166766 6.936524 0.159409 0.071591 3.082956 0.068218 0.071591 3.082956 0.068218 0.053336 2.312225 0.050790 -2.264597 18.165268 1.079031 -4.523593 -2.375132 2.735777 1.644273 -10.456120 5.775862 -6.892892 26.421389 44.366984 95.329792 19.654034 47.275084 28.460152 21.655194 -21.148416 -3.425430 -8.908539 -5.963465 8.615127 20.482145 -42.432056 -111.535304 27.738299 -65.771489 -7.264540 12.414003 34.750598 -3.383079 7.053335 1.014960 -0.529452 1.620044 0.334537 -7.781407 -4.279318 -0.576054 0.000000 0.000000 0.000000 1.801663 5.921269 1.272521 0.022809 4.103775 -0.507730 4.564573 -5.997818 -0.188487 0.000000 0.000000 0.000000
-38.905768 98.256681 -231.807800 1.616402 -4.546971 -0.390541 0.179714 6.896386 0.150430 0.077485 3.065118 0.064058 0.077485 3.065118 0.064058 0.057778 2.298847 0.047643 -2.264814 18.208239 1.094316 -4.527460 -2.294638 2.762122 1.662103 -10.356742 5.789848 -6.891126 26.421190 44.371891 95.311789 19.652746 47.259727 28.444181 21.659539 -21.171092 -3.463809 -8.816216 -5.957449 8.608690 20.464737 -42.420957 -111.528682 27.724830 -65.769536 -7.257209 12.409197 34.743866 -3.381206 7.049555 1.008259 -0.530934 1.610846 0.335355 -7.771648 -4.285817 -0.574449 -0.000000 -0.000000 0.000000 1.814592 5.923490 1.269166 0.020302 4.087176 -0.510190 4.562886 -5.998884 -0.189688 -0.000000 0.000000 -0.000000
-38.905914 98.256464 -231.785873 1.607279 -4.526565 -0.382315 0.192970 6.852599 0.138613 0.083556 3.045657 0.058638 0.083556 3.045657 0.058638 0.062360 2.284251 0.043551 -2.265345 18.254550 1.110936 -4.532206 -2.207868 2.790869 1.685524 -10.248800 5.803045 -6.885780 26.424641 44.384967 95.289800 19.653093 47.240234 28.418838 21.668868 -21.199415 -3.500411 -8.721061 -5.952012 8.606378 20.446097 -42.400275 -111.525019 27.705573 -65.769875 -7.253766 12.403626 34.734261 -3.384741 7.047771 0.998863 -0.529651 1.599005 0.336663 -7.759297 -4.292209 -0.573041 -0.000000 0.000000 -0.000000 1.823929 5.927226 1.265178 0.020115 4.068994 -0.515131 4.561380 -6.000235 -0.190518 -0.000000 0.000000 0.000000
-38.906051 98.256180 -231.765273 1.595562 -4.507523 -0.375234 0.207465 6.810736 0.127890 0.090159 3.027050 0.053687 0.090159 3.027050 0.053687 0.067337 2.270296 0.039809 -2.268155 18.300422 1.123260 -4.539725 -2.122017 2.812482 1.710094 -10.147917 5.815915 -6.887270 26.423478 44.390587 95.271734 19.650390 47.234412 28.392072 21.675975 -21.229752 -3.534572 -8.631646 -5.946976 8.603284 20.428292 -42.384476 -111.520956 27.694202 -65.771362 -7.254843 12.399747 34.728270 -3.391324 7.047001 0.990571 -0.523974 1.585864 0.337163 -7.745890 -4.297186 -0.572066 0.000000 0.000000 0.000000 1.829169 5.931192 1.261746 0.023957 4.052323 -0.520370 4.562795 -6.002477 -0.190487 0.000000 0.000000 0.000000
-38.906329 98.255899 -231.747253 1.576365 -4.490376 -0.370956 0.225702 6.773275 0.120185 0.098374 3.010402 0.050020 0.098374 3.010402 0.050020 0.073517 2.257810 0.037022 -2.275468 18.345097 1.127921 -4.553031 -2.038555 2.821537 1.735177 -10.063384 5.828599 -6.905991 26.413630 44.377302 95.264037 19.638847 47.257427 28.361039 21.678920 -21.264826 -3.566442 -8.553700 -5.941946 8.595686 20.412849 -42.381125 -111.513959 27.699720 -65.773621 -7.263785 12.398855 34.730206 -3.400735 7.046946 0.985588 -0.510435 1.570580 0.335833 -7.730454 -4.299002 -0.572037 -0.000000 -0.000000 0.000000 1.830159 5.935720 1.260347 0.034918 4.037196 -0.526160 4.569638 -6.005452 -0.188817 0.000000 0.000000 0.000000
-38.906598 98.255552 -231.730559 1.554572 -4.474593 -0.367825 0.245170 6.737736 0.113578 0.107119 2.994609 0.046824 0.107119 2.994609 0.046824 0.080091 2.245965 0.034585 -2.285061 18.389340 1.128271 -4.569120 -1.956004 2.823429 1.761386 -9.985906 5.840934 -6.931558 26.399185 44.356558 95.260280 19.624265 47.294112 28.328594 21.679630 -21.301905 -3.595891 -8.481500 -5.937284 8.587307 20.398235 -42.382658 -111.506556 27.713123 -65.777030 -7.277243 12.399660 34.735760 -3.413192 7.047905 0.981711 -0.492502 1.553995 0.333693 -7.713963 -4.299404 -0.572440 -0.000000 0.000000 -0.000000 1.827054 5.940476 1.259507 0.049907 4.023580 -0.532252 4.579403 -6.009318 -0.186287 0.000000 -0.000000 -0.000000
-38.906132 98.254930 -231.713732 1.542140 -4.459969 -0.363884 0.259275 6.702255 0.106235 0.113494 2.978839 0.043382 0.113494 2.978839 0.043382 0.084890 2.234137 0.031975 -2.292234 18.431650 1.128765 -4.580878 -1.877138 2.824865 1.786140 -9.903220 5.852878 -6.943242 26.384127 44.347051 95.249061 19.619364 47.316785 28.311245 21.676747 -21.329159 -3.621851 -8.406440 -5.933949 8.584411 20.381928 -42.380845 -111.502981 27.721085 -65.781582 -7.285811 12.400742 34.738487 -3.426994 7.049797 0.976119 -0.478952 1.539986 0.332501 -7.700885 -4.302321 -0.571974 0.000000 -0.000000 0.000000 1.819805 5.943179 1.255990 0.061360 4.014460 -0.535710 4.587313 -6.015146 -0.184733 0.000000 -0.000000 0.000000
-38.904363 98.253868 -231.696386 1.544459 -4.446135 -0.356941 0.265110 6.666323 0.096453 0.116234 2.962865 0.038979 0.116234 2.962865 0.038979 0.086967 2.222156 0.028664 -2.295138 18.470627 1.131225 -4.585564 -1.804553 2.828658 1.807656 -9.806165 5.864740 -6.924452 26.368885 44.362374 95.221454 19.633577 47.307621 28.320952 21.667386 -21.339464 -3.642791 -8.325547 -5.932599 8.590686 20.362184 -42.370444 -111.507197 27.717245 -65.787278 -7.285862 12.401943 34.733114 -3.444074 7.052757 0.965434 -0.472719 1.529067 0.333587 -7.691538 -4.309109 -0.569958 -0.000000 0.000000 -0.000000 1.805619 5.942039 1.246168 0.067096 4.011966 -0.534459 4.592625 -6.023582 -0.185289 -0.000000 -0.000000 -0.000000
-38.901858 98.252531 -231.678906 1.556140 -4.433464 -0.349179 0.265586 6.630452 0.085931 0.116605 2.946916 0.034325 0.116605 2.946916 0.034325 0.087269 2.210194 0.025176 -2.295620 18.507669 1.133837 -4.585922 -1.735659 2.832022 1.827735 -9.703896 5.876201 -6.891788 26.352992 44.388891 95.186333 19.657450 47.284435 28.345760 21.654489 -21.339945 -3.660240 -8.241797 -5.932560 8.602435 20.340742 -42.356711 -111.515239 27.707963 -65.794112 -7.281025 12.403419 34.724912 -3.462502 7.056647 0.953035 -0.470870 1.520723 0.335622 -7.685604 -4.318412 -0.567074 0.000000 -0.000000 0.000000 1.787288 5.938843 1.233674 0.069296 4.013968 -0.530570 4.596082 -6.033979 -0.186821 0.000000 0.000000 0.000000
-38.899592 98.251211 -231.660988 1.572974 -4.422862 -0.345204 0.262838 6.594308 0.077936 0.115508 2.930847 0.030839 0.115508 2.930847 0.030839 0.086464 2.198141 0.022569 -2.294517 18.545482 1.135606 -4.583068 -1.665447 2.833290 1.849164 -9.611625 5.886279 -6.874306 26.339137 44.404485 95.159032 19.675405 47.273025 28.366291 21.645456 -21.340125 -3.677713 -8.155505 -5.932804 8.614854 20.320309 -42.347161 -111.519443 27.698990 -65.802070 -7.272770 12.404216 34.723251 -3.474774 7.060983 0.946237 -0.473383 1.517291 0.336372 -7.686600 -4.330102 -0.564070 0.000000 0.000000 0.000000 1.773134 5.936683 1.226165 0.066937 4.017071 -0.527328 4.595132 -6.045470 -0.187766 0.000000 -0.000000 0.000000
-38.898062 98.249911 -231.642304 1.594337 -4.415002 -0.347596 0.256877 6.557416 0.074490 0.112921 2.914448 0.029415 0.112921 2.914448 0.029415 0.084532 2.185841 0.021518 -2.291668 18.585587 1.135071 -4.576179 -1.591170 2.829669 1.872417 -9.538124 5.894476 -6.885733 26.327955 44.397281 95.146095 19.678858 47.288296 28.375235 21.644297 -21.344596 -3.696521 -8.065540 -5.933413 8.627949 20.301511 -42.344582 -111.516149 27.691429 -65.811674 -7.260856 12.404660 34.732709 -3.475212 7.065560 0.949430 -0.481840 1.520843 0.334444 -7.697945 -4.345025 -0.561363 0.000000 0.000000 0.000000 1.768847 5.936691 1.227837 0.057145 4.020688 -0.526141 4.587811 -6.058499 -0.187225 -0.000000 -0.000000 0.000000
